<?xml version="1.0" encoding="UTF-8" standalone="no"?>
<svg
   xmlns:dc="http://purl.org/dc/elements/1.1/"
   xmlns:cc="http://creativecommons.org/ns#"
   xmlns:rdf="http://www.w3.org/1999/02/22-rdf-syntax-ns#"
   xmlns:svg="http://www.w3.org/2000/svg"
   xmlns="http://www.w3.org/2000/svg"
   xmlns:sodipodi="http://sodipodi.sourceforge.net/DTD/sodipodi-0.dtd"
   xmlns:inkscape="http://www.inkscape.org/namespaces/inkscape"
   viewBox="0 0 16 16"
   id="svg2"
   version="1.1"
   inkscape:version="0.91 r13725"
   sodipodi:docname="checkbox-checked.svg">
  <metadata
     id="metadata16">
    <rdf:RDF>
      <cc:Work
         rdf:about="">
        <dc:format>image/svg+xml</dc:format>
        <dc:type
           rdf:resource="http://purl.org/dc/dcmitype/StillImage" />
      </cc:Work>
    </rdf:RDF>
  </metadata>
  <defs
     id="defs14" />
  <sodipodi:namedview
     pagecolor="#ffffff"
     bordercolor="#666666"
     borderopacity="1"
     objecttolerance="10"
     gridtolerance="10"
     guidetolerance="10"
     inkscape:pageopacity="0"
     inkscape:pageshadow="2"
     inkscape:window-width="678"
     inkscape:window-height="397"
     id="namedview12"
     showgrid="false"
     inkscape:zoom="14.75"
     inkscape:cx="8.5065485"
     inkscape:cy="8"
     inkscape:window-x="25"
     inkscape:window-y="139"
     inkscape:window-maximized="0"
     inkscape:current-layer="svg2" />
  <g
     transform="translate(0 -1036.3622)"
     id="g4">
    <path
       style="fill:#9e9e9e;fill-opacity:1"
       d="M 0.30508475,-1.559322 C -0.80241197,-1.5927139 -1.1630443,1.027643 -1.1525424,2.1355932 L -1.0169492,16.440678 C -0.99405398,18.856119 0.89249826,18.677293 2,18.644068 l 13.559322,-0.40678 c 1.107502,-0.03322 2.241387,-3.265533 2.20339,-4.372881 L 17.288136,0.03389831 C 17.250138,-1.07345 14.904107,-1.1191505 13.79661,-1.1525424 Z M 2,1 14,1 c 0.554,0 1,0.446 1,1 l 0,12 c 0,0.554 -0.446,1 -1,1 L 2,15 C 1.446,15 1,14.554 1,14 L 1,2 C 1,1.446 1.446,1 2,1 Z"
       transform="translate(0,1036.3622)"
       id="path8"
       inkscape:connector-curvature="0"
       sodipodi:nodetypes="ssssssssssssssssss" />
    <rect
       width="14"
       x="1"
       y="1"
       rx="0"
       height="14"
       style="fill:#f5f5f5;fill-opacity:1"
       transform="translate(0,1036.3622)"
       id="rect6"
       ry="0" />
    <path
       style="fill:#4a829f;line-height:normal;color:#000;fill-opacity:1"
       d="m 11.653408,1040.2805 c -0.365873,0.01 -0.727323,0.1623 -0.985551,0.4266 l -4.0292904,3.8367 -1.3822187,-1.5489 c -0.4918947,-0.656 -1.5705595,-0.7265 -2.1406524,-0.14 -0.5700929,0.5865 -0.4910061,1.6854 0.1569519,2.1808 l 2.3831825,2.5599 c 0.9369248,0.9369 1.3590497,0.8116 2.3049741,-0.1343 0,0 3.250459,-3.9103 5.155609,-5.232 0.421127,-0.3992 0.596878,-0.5102 0.377676,-1.0522 -0.219202,-0.542 -1.265927,-0.916 -1.840681,-0.8966 z"
       id="path10" />
  </g>
</svg>
