<?xml version="1.0" encoding="UTF-8" standalone="no"?>
<svg
   xmlns:dc="http://purl.org/dc/elements/1.1/"
   xmlns:cc="http://creativecommons.org/ns#"
   xmlns:rdf="http://www.w3.org/1999/02/22-rdf-syntax-ns#"
   xmlns:svg="http://www.w3.org/2000/svg"
   xmlns="http://www.w3.org/2000/svg"
   xmlns:sodipodi="http://sodipodi.sourceforge.net/DTD/sodipodi-0.dtd"
   xmlns:inkscape="http://www.inkscape.org/namespaces/inkscape"
   viewBox="0 0 16 16"
   id="svg2"
   version="1.1"
   inkscape:version="0.91 r13725"
   sodipodi:docname="checkbox-mixed.svg">
  <metadata
     id="metadata16">
    <rdf:RDF>
      <cc:Work
         rdf:about="">
        <dc:format>image/svg+xml</dc:format>
        <dc:type
           rdf:resource="http://purl.org/dc/dcmitype/StillImage" />
      </cc:Work>
    </rdf:RDF>
  </metadata>
  <defs
     id="defs14" />
  <sodipodi:namedview
     pagecolor="#ffffff"
     bordercolor="#666666"
     borderopacity="1"
     objecttolerance="10"
     gridtolerance="10"
     guidetolerance="10"
     inkscape:pageopacity="0"
     inkscape:pageshadow="2"
     inkscape:window-width="678"
     inkscape:window-height="480"
     id="namedview12"
     showgrid="false"
     inkscape:zoom="14.75"
     inkscape:cx="7.9383051"
     inkscape:cy="8"
     inkscape:window-x="0"
     inkscape:window-y="25"
     inkscape:window-maximized="0"
     inkscape:current-layer="svg2" />
  <g
     transform="translate(0 -1036.3622)"
     id="g4">
    <path
       style="fill:#9e9e9e;fill-opacity:1"
       d="m 0.6440678,-1.0847458 c -1.10799077,-0.00452 -2.1186854,1.7067286 -2.0677966,2.8135594 l 0.54237287,11.7966104 c 0.0508888,1.10683 0.0107443,3.8834 1.11864407,3.898305 l 15.11864386,0.20339 c 1.1079,0.0149 2.050312,-2.588058 2,-3.694916 L 16.813559,2 c -0.05031,-1.10685714 1.548669,-3.0124267 0.440678,-3.0169492 z M 2,1 14,1 c 0.554,0 1,0.446 1,1 l 0,12 c 0,0.554 -0.446,1 -1,1 L 2,15 C 1.446,15 1,14.554 1,14 L 1,2 C 1,1.446 1.446,1 2,1 Z"
       transform="translate(0,1036.3622)"
       id="path8"
       inkscape:connector-curvature="0"
       sodipodi:nodetypes="ssssssssssssssssss" />
    <rect
       width="14"
       x="1"
       y="1"
       rx="0"
       height="14"
       style="fill:#f5f5f5;fill-opacity:1"
       transform="translate(0,1036.3622)"
       id="rect6" />
    <rect
       width="8"
       x="4"
       y="1043.362"
       height="2"
       style="fill:#4a829f;fill-opacity:1"
       id="rect10" />
  </g>
</svg>
