<?xml version="1.0" encoding="UTF-8" standalone="no"?>
<svg
   xmlns:dc="http://purl.org/dc/elements/1.1/"
   xmlns:cc="http://creativecommons.org/ns#"
   xmlns:rdf="http://www.w3.org/1999/02/22-rdf-syntax-ns#"
   xmlns:svg="http://www.w3.org/2000/svg"
   xmlns="http://www.w3.org/2000/svg"
   xmlns:sodipodi="http://sodipodi.sourceforge.net/DTD/sodipodi-0.dtd"
   xmlns:inkscape="http://www.inkscape.org/namespaces/inkscape"
   viewBox="0 0 16 16"
   id="svg2"
   version="1.1"
   inkscape:version="0.91 r13725"
   sodipodi:docname="checkbox-unchecked.svg">
  <metadata
     id="metadata14">
    <rdf:RDF>
      <cc:Work
         rdf:about="">
        <dc:format>image/svg+xml</dc:format>
        <dc:type
           rdf:resource="http://purl.org/dc/dcmitype/StillImage" />
      </cc:Work>
    </rdf:RDF>
  </metadata>
  <defs
     id="defs12" />
  <sodipodi:namedview
     pagecolor="#ffffff"
     bordercolor="#666666"
     borderopacity="1"
     objecttolerance="10"
     gridtolerance="10"
     guidetolerance="10"
     inkscape:pageopacity="0"
     inkscape:pageshadow="2"
     inkscape:window-width="678"
     inkscape:window-height="480"
     id="namedview10"
     showgrid="false"
     inkscape:zoom="14.75"
     inkscape:cx="8.5191437"
     inkscape:cy="8"
     inkscape:window-x="0"
     inkscape:window-y="25"
     inkscape:window-maximized="0"
     inkscape:current-layer="svg2" />
  <g
     transform="translate(0 -1036.3622)"
     id="g4">
    <path
       style="fill:#9e9e9e;fill-opacity:1"
       d="m 0.91525424,-1.0169492 c -1.10779713,0.0212019 -1.78620687,1.70560821 -1.79661017,2.8135594 L -1.0169492,16.237288 c -0.010403,1.107951 1.97676116,1.180609 3.0847458,1.186441 l 12.8813564,0.0678 c 1.107984,0.0058 3.031203,-1.098432 2.949152,-2.203389 L 16.881356,1.5932203 c -0.08205,-1.10495769 -0.688813,-2.9025578 -1.79661,-2.8813559 z M 2,1 14,1 c 0.554,0 1,0.446 1,1 l 0,12 c 0,0.554 -0.446,1 -1,1 L 2,15 C 1.446,15 1,14.554 1,14 L 1,2 C 1,1.446 1.446,1 2,1 Z"
       transform="translate(0,1036.3622)"
       id="path8"
       inkscape:connector-curvature="0"
       sodipodi:nodetypes="ssssssssssssssssss" />
    <rect
       width="14"
       x="1"
       y="1"
       rx="0"
       height="14"
       style="fill:#f5f5f5;fill-opacity:1"
       transform="translate(0,1036.3622)"
       id="rect6" />
  </g>
</svg>
