<?xml version="1.0" encoding="UTF-8" standalone="no"?>
<svg
   xmlns:dc="http://purl.org/dc/elements/1.1/"
   xmlns:cc="http://creativecommons.org/ns#"
   xmlns:rdf="http://www.w3.org/1999/02/22-rdf-syntax-ns#"
   xmlns:svg="http://www.w3.org/2000/svg"
   xmlns="http://www.w3.org/2000/svg"
   xmlns:sodipodi="http://sodipodi.sourceforge.net/DTD/sodipodi-0.dtd"
   xmlns:inkscape="http://www.inkscape.org/namespaces/inkscape"
   viewBox="0 0 40 40"
   id="svg2"
   version="1.1"
   inkscape:version="0.91 r13725"
   sodipodi:docname="grid-selection-unchecked.svg">
  <metadata
     id="metadata14">
    <rdf:RDF>
      <cc:Work
         rdf:about="">
        <dc:format>image/svg+xml</dc:format>
        <dc:type
           rdf:resource="http://purl.org/dc/dcmitype/StillImage" />
      </cc:Work>
    </rdf:RDF>
  </metadata>
  <defs
     id="defs12" />
  <sodipodi:namedview
     pagecolor="#ffffff"
     bordercolor="#666666"
     borderopacity="1"
     objecttolerance="10"
     gridtolerance="10"
     guidetolerance="10"
     inkscape:pageopacity="0"
     inkscape:pageshadow="2"
     inkscape:window-width="678"
     inkscape:window-height="480"
     id="namedview10"
     showgrid="false"
     inkscape:zoom="5.9"
     inkscape:cx="19.152542"
     inkscape:cy="20"
     inkscape:window-x="0"
     inkscape:window-y="25"
     inkscape:window-maximized="0"
     inkscape:current-layer="svg2" />
  <g
     transform="translate(0 -1012.3622)"
     id="g4">
    <path
       style="fill:#9e9e9e;fill-opacity:1"
       d="m 0.08474576,1009.1419 c -2.76921516,0.066 -3.70394566,4.773 -3.64406776,7.5423 l 0.6779661,31.356 c 0.059878,2.7693 4.0945324,7.5687 6.8644067,7.5423 l 35.5932202,-0.3389 c 2.769875,-0.026 2.50423,-5.1269 2.79661,-7.8814 l 3.220339,-30.339 c 0.29238,-2.7545 -7.146039,-8.7947 -9.915254,-8.7288 z M 5,1014.4158 l 30,0 c 1.385,0 3.035714,1.5614 3.035714,2.9464 l 0,30 c 0,1.385 -1.650714,3.0357 -3.035714,3.0357 l -30,0 c -1.385,0 -2.9464286,-1.6507 -2.9464286,-3.0357 l 0,-30 c 0,-1.385 1.5614286,-2.9464 2.9464286,-2.9464 z"
       id="path8"
       inkscape:connector-curvature="0"
       sodipodi:nodetypes="ssssssssssssssssss" />
    <rect
       width="37.5"
       x="1.429"
       y="1013.791"
       rx="0"
       height="37.5"
       style="fill:#f5f5f5;fill-opacity:1"
       id="rect6" />
  </g>
</svg>
